<svg xmlns="http://www.w3.org/2000/svg" width="51" height="52" fill="none"><circle cx="25.5" cy="26" r="24.5" stroke="#012060" stroke-width="2"/><mask id="a" width="24" height="22" x="14" y="15" maskUnits="userSpaceOnUse" style="mask-type:alpha"><path fill="#111" fill-rule="evenodd" d="M14 15.5h24v21H14v-21Z" clip-rule="evenodd"/></mask><g mask="url(#a)"><path fill="#111" fill-rule="evenodd" d="m35.89 23.625-2.573 9.251c-.14.508-.442.963-.85 1.282a2.337 2.337 0 0 1-1.43.493h-10.07c-.512 0-1.02-.175-1.429-.493a2.46 2.46 0 0 1-.85-1.282l-2.567-9.251h19.768Zm1.916-1.513a.9.9 0 0 0-.735-.356h-3.694l-2.62-5.736a.9.9 0 0 0-1.2-.432.95.95 0 0 0-.44 1.23l2.254 4.936H20.639l2.257-4.94a.95.95 0 0 0-.442-1.226.901.901 0 0 0-1.202.436l-2.618 5.732h-3.705a.905.905 0 0 0-.736.356.961.961 0 0 0-.159.834l2.91 10.444c.254.89.79 1.686 1.51 2.243.72.557 1.612.865 2.514.867h10.077a4.148 4.148 0 0 0 2.516-.873 4.358 4.358 0 0 0 1.506-2.253l2.9-10.431a.958.958 0 0 0-.161-.83Z" clip-rule="evenodd"/></g></svg>