<svg width="149" height="160" viewBox="0 0 149 160" fill="none" xmlns="http://www.w3.org/2000/svg">
<path fill-rule="evenodd" clip-rule="evenodd" d="M71.4376 133.596C87.7089 122.655 67.8202 98.6279 55.1374 98.7562C42.4547 98.8845 34.6809 106.618 37.457 127.893C40.233 149.168 55.1663 144.536 71.4376 133.596Z" fill="#44C6B0"/>
<path fill-rule="evenodd" clip-rule="evenodd" d="M73.596 65.0055C86.7499 65.0247 84.7018 44.2013 77.5999 39.515C70.498 34.8287 63.2733 36.2136 56.8363 49.0868C50.3994 61.9599 60.4421 64.9863 73.596 65.0055Z" fill="#44C6B0"/>
<path fill-rule="evenodd" clip-rule="evenodd" d="M127.412 48.4186C122.558 53.7041 131.939 60.5197 136.497 59.3815C141.055 58.2433 143.143 54.8283 140.181 47.5155C137.22 40.2027 132.266 43.1331 127.412 48.4186Z" fill="#44C6B0"/>
</svg>
